<svg width="26" height="27" viewBox="0 0 26 27" fill="none" xmlns="http://www.w3.org/2000/svg">
<path d="M25.3018 11.5832C25.301 11.5826 25.3004 11.5818 25.2998 11.5812L14.6928 0.975693C14.2406 0.523422 13.6395 0.274475 13.0001 0.274475C12.3608 0.274475 11.7597 0.523422 11.3073 0.975693L0.705878 11.5759C0.702307 11.5795 0.698538 11.5832 0.695165 11.5868C-0.233273 12.5205 -0.231686 14.0354 0.699728 14.9667C1.12526 15.3924 1.68709 15.6388 2.28799 15.6648C2.31259 15.6671 2.33719 15.6683 2.36199 15.6683H2.78455V23.4732C2.78455 25.0178 4.04151 26.2745 5.58633 26.2745H9.73613C10.1569 26.2745 10.4979 25.9333 10.4979 25.5128V19.3936C10.4979 18.6888 11.0715 18.1156 11.7763 18.1156H14.224C14.9288 18.1156 15.5022 18.6888 15.5022 19.3936V25.5128C15.5022 25.9333 15.8432 26.2745 16.264 26.2745H20.4138C21.9588 26.2745 23.2156 25.0178 23.2156 23.4732V15.6683H23.6076C24.2468 15.6683 24.8479 15.4194 25.3004 14.9669C26.2328 14.0342 26.2332 12.5165 25.3018 11.5832ZM24.2229 13.8898C24.0585 14.0542 23.8399 14.1449 23.6076 14.1449H22.4538C22.033 14.1449 21.692 14.4859 21.692 14.9066V23.4732C21.692 24.1778 21.1186 24.751 20.4138 24.751H17.0258V19.3936C17.0258 17.849 15.769 16.5921 14.224 16.5921H11.7763C10.2313 16.5921 8.97434 17.849 8.97434 19.3936V24.751H5.58633C4.88167 24.751 4.30814 24.1778 4.30814 23.4732V14.9066C4.30814 14.4859 3.96712 14.1449 3.54634 14.1449H2.41238C2.40048 14.1441 2.38877 14.1435 2.37667 14.1433C2.14972 14.1393 1.93685 14.0493 1.77735 13.8896C1.43811 13.5504 1.43811 12.9984 1.77735 12.659C1.77755 12.659 1.77755 12.6588 1.77775 12.6586L1.77834 12.658L12.385 2.05281C12.5492 1.88837 12.7676 1.79791 13.0001 1.79791C13.2325 1.79791 13.4509 1.88837 13.6153 2.05281L24.2196 12.6558C24.2212 12.6574 24.2229 12.659 24.2245 12.6605C24.562 13.0003 24.5614 13.5512 24.2229 13.8898Z" fill="white"/>
</svg>
